inDegrees=no
num_controls=7
num_derivatives=13
num_iterations=106
num_multipliers=7
num_parameters=0
num_slacks=7
num_states=26
objective=0.308917
objective_accelerations=0.052412
objective_balance=0.002281
objective_effort=0.038375
objective_height=0.214276
objective_ligament=0.001573
solver_duration=1064.337031
status=Solve_Succeeded
success=true
DataType=double
version=3
OpenSimVersion=4.5
endheader
time	/jointset/ground_pelvis/pelvis_tilt/value	/jointset/ground_pelvis/pelvis_tx/value	/jointset/ground_pelvis/pelvis_ty/value	/jointset/hip_r/hip_flexion_r/value	/jointset/hip_r/hip_adduction_r/value	/jointset/hip_r/hip_rotation_r/value	/jointset/back/lumbar_extension/value	/jointset/patellofemoral_r/patellar_flexion_r/value	/jointset/knee_r/knee_flexion_r/value	/jointset/knee_r/knee_adduction_r/value	/jointset/knee_r/knee_rotation_r/value	/jointset/ankle_r/ankle_angle_r/value	/jointset/subtalar_r/subtalar_angle_r/value	/jointset/ground_pelvis/pelvis_tilt/speed	/jointset/ground_pelvis/pelvis_tx/speed	/jointset/ground_pelvis/pelvis_ty/speed	/jointset/hip_r/hip_flexion_r/speed	/jointset/hip_r/hip_adduction_r/speed	/jointset/hip_r/hip_rotation_r/speed	/jointset/back/lumbar_extension/speed	/jointset/patellofemoral_r/patellar_flexion_r/speed	/jointset/knee_r/knee_flexion_r/speed	/jointset/knee_r/knee_adduction_r/speed	/jointset/knee_r/knee_rotation_r/speed	/jointset/ankle_r/ankle_angle_r/speed	/jointset/subtalar_r/subtalar_angle_r/speed	/forceset/tau_hip_flexion_r	/forceset/tau_hip_adduction_r	/forceset/tau_hip_rotation_r	/forceset/tau_knee_flexion_r	/forceset/tau_ankle_angle_r	/forceset/tau_subtalar_angle_r	/forceset/tau_lumbar_extension	lambda_cid13_p0	lambda_cid14_p0	lambda_cid14_p1	lambda_cid14_p2	lambda_cid14_p3	lambda_cid14_p4	lambda_cid14_p5	/jointset/ground_pelvis/pelvis_tilt/accel	/jointset/ground_pelvis/pelvis_tx/accel	/jointset/ground_pelvis/pelvis_ty/accel	/jointset/hip_r/hip_flexion_r/accel	/jointset/hip_r/hip_adduction_r/accel	/jointset/hip_r/hip_rotation_r/accel	/jointset/back/lumbar_extension/accel	/jointset/patellofemoral_r/patellar_flexion_r/accel	/jointset/knee_r/knee_flexion_r/accel	/jointset/knee_r/knee_adduction_r/accel	/jointset/knee_r/knee_rotation_r/accel	/jointset/ankle_r/ankle_angle_r/accel	/jointset/subtalar_r/subtalar_angle_r/accel	gamma_cid13_p0	gamma_cid14_p0	gamma_cid14_p1	gamma_cid14_p2	gamma_cid14_p3	gamma_cid14_p4	gamma_cid14_p5
1.5	-0.1921047739335036	-0.01465475764049651	0.6933235967416457	1.259965368353567	-0.2393881167409127	-0.03258524929949724	-0.6840036013939794	1.342081367004584	1.342081367004582	-0.06084409832153313	0.1745316791340105	0.3764341818022469	0.1442125782358755	0.6105552658263571	0.2474218723562072	1.002339309399647	-3.139628244597308	0.02461906744959799	-0.4238113151553008	0.7434704722448093	-2.928129754954742	-2.928129754954744	0.4676734804229713	0.0002380066381115537	-0.5333569205634314	-0.1812223975568728	-0.2488551702509833	-0.0007499806906152086	0.01985041784809793	-0.3662580372625522	0.03218978159662057	0.001506612837500145	0.2807008240522071	-0.04327299734066048	-31.72460449927407	-5.663760511614242	2.196802910695499	-12.81928616108109	-635.4045312281082	65.53964473401945	1.551170928526054	1.283407773440193	-0.6795558690182331	-2.062861595423816	0.02040675401196002	-0.326819643158471	2.889850061265372	-2.493335045891539	-2.493335045891547	0.6234453514448257	-0.06543476497366435	-2.176444712295189	-0.6991710710900227	3.111912355558019e-07	1.648301802202899e-07	-1.267103484828666e-06	1.883205465839063e-06	1.652133568714125e-07	3.378589703827531e-07	1.90889054787105e-07
1.51	-0.1859228363453534	-0.01211658795343665	0.7033106323147299	1.228469295645974	-0.2391429008927427	-0.03683526113570018	-0.6764256416904908	1.312679272133267	1.312679272133267	-0.05612939787784066	0.1745325746260812	0.3709926646029116	0.1423626785897544	0.6256575261290896	0.2601848040542504	0.9948238880109296	-3.159181576471356	0.02438395091676587	-0.4262951333172629	0.7720540968988907	-2.951925556506584	-2.951925556506583	0.4751630264817756	-5.204254046175579e-05	-0.5547985054971979	-0.1887150500761948	-0.2384965473337626	-0.001687590188833227	0.01987623059130687	-0.3564956582847033	0.03208426433918259	0.001908704125738384	0.2709194278122093	-0.04333111138808429	-31.02370439122521	-5.165202832764405	1.887495169836821	-12.62488305830289	-624.8603317171742	65.05287439279783	1.463674136191938	1.268543081725494	-0.8240248587496964	-1.84071570562857	-0.05052318205554044	-0.2238685151394604	2.832512934458202	-2.268326297770902	-2.268326297770397	0.7958815963822187	-0.008142729561540179	-2.105797130012688	-0.766857264735163	6.767320912829883e-07	6.200930234808045e-07	4.851284662679156e-07	5.469707997498805e-06	-2.85826276383131e-07	4.38258787690094e-07	3.55757738288356e-06
1.52	-0.1795950920431667	-0.009451627506648567	0.7132152157569367	1.196789860275194	-0.2389010466749258	-0.04111305227600837	-0.6685638668870657	1.283050094528844	1.283050094528845	-0.05134296750090812	0.1745310990793198	0.3653411752050196	0.1404393434339637	0.6397166086336263	0.2727800243018501	0.9858488832241628	-3.176300777234734	0.02394674137894443	-0.4293671759762013	0.8002334922321204	-2.97354630157604	-2.973546301576035	0.4820194670719398	-0.0002362011295300327	-0.5753513602747773	-0.1959094994907921	-0.2281379244165457	-0.002625199687053228	0.01990204333455567	-0.3467332793068512	0.03197874708174454	0.002310795413972322	0.2611380315722081	-0.04332299812989842	-30.32386513025874	-4.663715938600694	1.574157065454356	-12.46521313869276	-614.3157693987865	64.71056906282131	1.342535368886885	1.249865483351469	-0.9714725486280169	-1.576035373289637	-0.0200118469859145	-0.4444645425537457	2.809004197095062	-2.058323749414255	-2.058323749414255	0.4968242577167959	-0.04425664707264326	-1.998698681057797	-0.6395304501451248	8.468267751012452e-07	8.188862091797163e-07	7.321974505586452e-07	6.956847255217818e-06	-4.497648378448861e-07	5.56283552621788e-07	4.472180376259625e-06
1.53	-0.1731317996836887	-0.006661661535746625	0.7230229244656567	1.164950962860939	-0.2386649636191633	-0.04542573641679973	-0.6604230256740194	1.253215426989059	1.253215426989055	-0.04649141566876216	0.1745294594296364	0.3594886320532037	0.1384449770141496	0.6527539709737323	0.2851737938618538	0.9754551107457277	-3.191055625456113	0.02323413355672016	-0.4331510787216236	0.8278383582754817	-2.992987921473027	-2.992987921473022	0.4883079214786608	-0.0001221878375146832	-0.5949891294096165	-0.2029095550372816	-0.2175597720288739	-0.003455695715688616	0.02013658233245146	-0.3374081676109836	0.0322774982659801	0.002255781004419475	0.2511173114825361	-0.04871595327999353	-29.55049486392534	-4.414293124613061	1.376874852211965	-12.26013641061057	-603.9425050500416	63.96474469635677	1.256242654169858	1.22817966644431	-1.108838514542665	-1.361640636616476	-0.1015596353015835	-0.3415981636816672	2.721768992786834	-1.827346203351378	-1.82734620335147	0.6969190167389211	0.03582903129540494	-1.920995996357499	-0.7216339633522779	8.092599012662671e-07	7.451803837194285e-07	-6.199692173818255e-07	6.213413034374831e-06	-3.086585105268072e-07	6.930348244043568e-07	2.781442701495303e-06
